<svg version="1.1" id="Layer_1" xmlns="http://www.w3.org/2000/svg" xmlns:xlink="http://www.w3.org/1999/xlink" x="0px" y="0px"
	 width="100%" viewBox="0 0 319 313" enable-background="new 0 0 319 313" xml:space="preserve">
<path fill="#000000" opacity="1.000000" stroke="none" 
	d="
M181.000000,314.000000 
	C120.666695,314.000000 60.833389,314.000000 1.000064,314.000000 
	C1.000043,209.666748 1.000043,105.333488 1.000021,1.000176 
	C107.333199,1.000117 213.666397,1.000117 319.999695,1.000059 
	C319.999817,105.333153 319.999817,209.666306 319.999908,313.999725 
	C273.833344,314.000000 227.666672,314.000000 181.000000,314.000000 
M194.013931,81.004967 
	C194.013931,81.004967 194.034103,81.062141 194.659378,80.829117 
	C195.461929,79.569885 196.264481,78.310654 197.005203,77.002235 
	C197.005203,77.002235 197.053558,77.064507 197.676086,76.815796 
	C201.492386,72.877586 205.308701,68.939369 209.741302,64.688812 
	C211.896469,63.458080 214.051620,62.227352 216.923782,61.089996 
	C217.264038,62.197334 217.720428,63.283844 217.923431,64.415802 
	C218.610779,68.248466 219.208389,72.097229 219.993408,76.656151 
	C224.561935,85.927010 232.509094,90.368507 242.348694,90.897804 
	C259.341309,91.811890 276.126953,75.224022 269.423798,55.013428 
	C267.354065,48.773060 264.556580,42.917381 258.002441,39.997425 
	C258.002441,39.997425 258.035095,39.954723 257.790314,39.307987 
	C251.838882,36.594097 245.887436,33.880207 239.301605,31.056147 
	C238.877045,31.102589 238.452484,31.149029 237.099701,31.051096 
	C232.392960,31.073597 227.686203,31.096098 222.227203,31.279238 
	C202.444626,35.109867 186.826447,45.981625 174.539169,61.303043 
	C162.704468,76.060120 155.523346,93.487366 148.933182,111.136032 
	C141.259094,131.687469 135.970535,153.241623 123.247269,172.221603 
	C122.490723,173.777817 121.734177,175.334030 120.887833,176.892792 
	C120.887833,176.892792 120.889053,176.982605 120.261597,177.225937 
	C119.115685,178.221878 117.969772,179.217834 116.434708,180.552017 
	C114.201111,170.594269 108.802269,164.352097 99.628738,160.329193 
	C94.589882,159.961868 89.227135,158.293823 84.568611,159.453857 
	C65.082527,164.306183 56.099773,181.327820 61.943676,199.971939 
	C65.939331,212.719513 80.726845,224.610596 99.718994,222.997772 
	C114.290062,220.284103 126.467255,213.187317 136.159866,202.146622 
	C145.694611,191.285751 153.482910,179.200989 159.023773,165.781387 
	C160.180954,162.978775 161.861801,161.902359 165.011597,161.934799 
	C180.993668,162.099365 196.978424,161.999451 212.962189,162.020996 
	C214.377319,162.022903 215.792160,162.232178 216.989304,162.327759 
	C216.989304,172.770294 217.508591,182.711029 216.845093,192.572189 
	C216.164749,202.683594 213.020859,210.417007 201.550171,210.050095 
	C200.728622,210.023819 199.218628,210.630920 199.157150,211.093506 
	C198.732315,214.289444 198.173767,217.598022 198.694122,220.696426 
	C198.822311,221.459793 202.773148,221.604996 204.975723,221.981430 
	C205.624603,222.092346 206.304535,222.021530 207.001175,222.001038 
	C207.001175,222.001038 206.964569,222.026352 207.104050,222.509415 
	C207.417130,222.347702 207.730209,222.185989 208.513977,221.920303 
	C208.513977,221.920303 208.975311,221.780563 209.795822,221.958664 
	C213.666641,221.965851 217.539459,221.895584 221.407928,221.994736 
	C233.020859,222.292358 244.633530,222.615005 256.243225,223.016556 
	C260.240143,223.154800 262.702454,222.042084 262.005707,217.412323 
	C261.809845,216.111023 262.388489,214.564438 261.879303,213.471771 
	C261.252411,212.126556 260.068146,210.644470 258.757324,210.089539 
	C254.939285,208.473175 250.938095,207.289413 246.933502,205.487076 
	C246.933502,205.487076 246.813034,205.048111 246.893829,204.511078 
	C246.604767,204.319717 246.315704,204.128357 246.007919,203.993973 
	C246.007919,203.993973 246.061783,203.967606 246.006699,203.148178 
	C245.664047,201.745636 245.077576,200.353363 245.017960,198.938904 
	C244.603973,189.115952 244.339645,179.286667 243.924210,169.463791 
	C243.845612,167.605331 243.306305,165.766327 242.944305,163.195602 
	C242.892990,162.475464 242.841675,161.755325 242.956879,160.104187 
	C242.899780,145.730377 242.842682,131.356552 242.907471,116.338112 
	C242.940460,115.902092 242.973450,115.466064 243.708191,114.540894 
	C243.807846,111.898232 244.025024,109.253670 243.982254,106.613319 
	C243.897659,101.392136 242.472885,100.054634 237.092422,99.999321 
	C232.616425,99.953308 228.139420,99.966141 223.663132,99.995583 
	C217.598328,100.035461 217.024429,100.601761 217.006485,106.487328 
	C216.976669,116.268379 216.963318,126.049484 216.019516,135.946960 
	C200.784592,135.946960 185.549652,135.946960 169.562103,135.946960 
	C172.470840,128.343765 174.784378,121.375854 177.768570,114.708084 
	C182.437515,104.275909 187.560135,94.046776 192.696289,83.675484 
	C192.696289,83.675484 192.739868,83.466736 193.246490,83.142876 
	C193.521606,82.436226 193.796722,81.729576 194.013931,81.004967 
M97.141586,300.855530 
	C97.640747,300.883942 98.161057,300.830414 98.635895,300.953003 
	C105.861870,302.818634 105.971024,302.698090 109.514694,296.082733 
	C110.055252,295.073608 111.617088,294.219818 112.817291,294.042206 
	C114.933388,293.728973 117.155380,294.190643 119.295776,293.968658 
	C122.681519,293.617493 124.772964,294.387360 125.800758,298.134857 
	C126.682739,301.350708 134.745041,303.474548 137.581604,301.469849 
	C138.307220,300.957001 138.751083,299.118073 138.433029,298.195770 
	C134.020004,285.398926 129.471649,272.648438 124.911270,259.902802 
	C123.060524,254.730194 118.530205,256.300201 114.777679,256.058960 
	C111.422264,255.843262 109.965134,257.772125 108.924622,260.817841 
	C105.136780,271.905304 101.006386,282.875519 97.194832,293.955231 
	C96.479858,296.033569 96.636887,298.411896 97.141586,300.855530 
M231.520233,294.919739 
	C233.404572,292.973511 235.738998,290.985413 232.538071,288.374969 
	C227.116989,283.953979 225.493027,284.055603 219.958298,288.676422 
	C219.455154,289.096466 218.975510,289.614838 218.389618,289.854401 
	C214.138000,291.592590 206.766693,288.971497 204.363602,284.916687 
	C201.606750,280.264954 202.897949,275.031097 207.904953,270.561340 
	C210.580963,268.172485 218.665802,267.854797 221.169998,270.850250 
	C225.031693,275.469482 228.089706,273.180756 231.661118,270.865021 
	C234.347137,269.123383 234.719101,267.458160 232.520493,265.046295 
	C225.813141,257.688385 217.854156,254.283966 207.900925,257.043823 
	C198.801971,259.566772 193.314621,266.033051 191.386993,274.746094 
	C189.516998,283.198639 191.956543,291.271423 198.749146,297.069672 
	C208.319809,305.239319 221.458755,304.543427 231.520233,294.919739 
M167.816086,287.646667 
	C178.076187,285.341125 181.070480,277.978790 181.486542,271.427368 
	C181.940750,264.275696 176.578186,258.290741 168.541718,256.416931 
	C165.849854,255.789291 162.928818,256.089905 160.111618,256.063812 
	C146.659302,255.939194 148.092194,255.322968 148.049530,268.103912 
	C148.018448,277.413757 148.022675,286.723816 148.042175,296.033722 
	C148.052185,300.813385 150.896530,302.015045 155.166473,302.023651 
	C159.431305,302.032257 161.255951,300.304504 160.974335,296.054474 
	C160.802368,293.459106 160.942581,290.843109 160.942581,287.921753 
	C163.378891,287.921753 165.187332,287.921753 167.816086,287.646667 
z"/>
<path fill="#5489CD" opacity="1.000000" stroke="none" 
	d="
M123.868378,171.973663 
	C135.970535,153.241623 141.259094,131.687469 148.933182,111.136032 
	C155.523346,93.487366 162.704468,76.060120 174.539169,61.303043 
	C186.826447,45.981625 202.444626,35.109867 222.938507,31.377157 
	C228.470062,32.797905 233.299973,34.618202 238.027924,31.195471 
	C238.452484,31.149029 238.877045,31.102589 239.682831,31.415466 
	C246.054413,34.501434 252.044754,37.228077 258.035095,39.954723 
	C258.035095,39.954723 258.002441,39.997425 258.089966,40.315395 
	C259.300323,42.470863 260.195251,44.504875 261.582794,46.114094 
	C270.854095,56.866592 271.171753,68.596687 262.136780,79.746185 
	C255.244080,88.252075 236.953262,93.084335 226.223541,81.315216 
	C222.471512,77.199753 222.881531,74.893990 227.689835,71.847260 
	C229.281464,70.838753 230.554031,69.326721 232.318024,68.026779 
	C233.123764,67.991135 233.583984,67.973618 234.363312,67.884308 
	C235.771149,66.887253 236.859863,65.961998 238.223846,65.018280 
	C238.682617,64.987610 238.866150,64.975410 239.419067,64.955490 
	C241.624649,64.082352 243.530716,63.323238 245.210068,62.219288 
	C245.424149,62.078568 244.454865,60.137684 243.675964,58.885452 
	C240.501389,58.212982 237.684616,57.685822 234.434814,57.147820 
	C229.374344,57.553440 224.721283,57.799488 220.134796,58.488632 
	C218.731537,58.699482 217.510986,60.126526 216.206772,60.996620 
	C214.051620,62.227352 211.896469,63.458080 209.055542,64.857597 
	C202.603271,67.164268 198.919846,71.260307 197.053558,77.064507 
	C197.053558,77.064507 197.005203,77.002235 196.680634,77.076965 
	C195.582062,78.455170 194.808075,79.758652 194.034088,81.062134 
	C194.034103,81.062141 194.013931,81.004967 193.760803,81.148926 
	C193.251740,82.017509 192.995804,82.742126 192.739868,83.466736 
	C192.739868,83.466736 192.696289,83.675484 192.248108,83.669556 
	C191.016449,84.201553 189.834534,84.563629 189.508087,85.303276 
	C182.478195,101.230988 175.493958,117.179871 168.737991,133.224503 
	C168.398163,134.031555 170.192963,135.737411 171.347321,137.221542 
	C175.461212,137.289246 179.221619,137.160202 183.380646,137.037994 
	C184.840302,137.050232 185.901352,137.055634 187.332520,137.248016 
	C197.152237,137.609192 206.601410,137.866364 216.051620,137.912537 
	C219.361237,137.928726 219.979263,135.434448 219.976624,132.687149 
	C219.968765,124.543236 220.128143,116.395363 219.916473,108.256989 
	C219.803223,103.902626 221.888031,102.183258 225.836838,102.077232 
	C229.490677,101.979141 233.148712,102.049698 236.804031,101.990952 
	C240.400803,101.933136 241.785950,103.886246 242.008148,107.243706 
	C242.180618,109.849762 242.662247,112.435356 243.006454,115.030045 
	C242.973450,115.466064 242.940460,115.902092 242.626328,116.968575 
	C241.910477,121.010284 241.015915,124.436386 241.125534,127.830048 
	C241.483261,138.904800 242.207275,149.967712 242.790375,161.035187 
	C242.841675,161.755325 242.892990,162.475464 242.765564,163.927795 
	C242.789169,176.533936 242.907654,188.410767 243.316681,200.277573 
	C243.360107,201.537628 245.105804,202.739014 246.061783,203.967606 
	C246.061783,203.967606 246.007919,203.993973 246.113312,204.173309 
	C246.390503,204.606964 246.588608,204.838791 246.813034,205.048111 
	C246.813034,205.048111 246.933502,205.487076 247.008270,206.076263 
	C250.419357,208.464371 253.823914,210.151184 257.057343,212.119095 
	C258.297150,212.873642 260.163361,214.527725 259.962402,215.320160 
	C259.541534,216.980011 258.192749,218.718994 256.735931,219.696854 
	C255.675201,220.408859 253.831116,220.008011 252.336136,220.010284 
	C239.846420,220.029312 227.355698,219.950974 214.867905,220.108917 
	C212.896973,220.133835 210.939178,221.197281 208.975311,221.780563 
	C208.975311,221.780563 208.513977,221.920303 208.008972,221.963104 
	C207.324173,222.012726 207.144363,222.019531 206.964569,222.026352 
	C206.964569,222.026352 207.001175,222.001038 206.817505,221.705078 
	C206.103714,221.030975 205.610916,220.403152 205.037048,220.317337 
	C202.343674,219.914459 200.274185,218.587036 201.249817,215.785141 
	C201.794891,214.219727 203.827759,212.530716 205.496414,212.108948 
	C212.835770,210.253906 217.942032,205.037582 218.677719,196.494202 
	C219.531464,186.579895 219.631775,176.597244 219.933807,166.640472 
	C220.067139,162.244843 218.075165,159.926285 213.307632,159.965637 
	C197.009171,160.100113 180.708694,160.097961 164.409851,160.000839 
	C160.359497,159.976715 158.181183,161.819824 156.296310,165.284454 
	C151.237320,174.583496 146.139038,183.898819 140.389954,192.776093 
	C131.399384,206.658585 118.862000,215.979385 102.628120,220.085327 
	C101.241661,220.435989 100.138802,221.907898 98.904190,222.858932 
	C80.726845,224.610596 65.939331,212.719513 61.943676,199.971939 
	C56.099773,181.327820 65.082527,164.306183 84.568611,159.453857 
	C89.227135,158.293823 94.589882,159.961868 99.786804,160.878189 
	C100.330055,162.263474 100.715233,163.099762 100.934464,164.142380 
	C99.145950,171.844345 97.478065,179.330643 95.930275,186.841690 
	C95.503006,188.915161 95.029518,191.116180 95.301956,193.162170 
	C95.644501,195.734528 97.215683,196.056396 99.353752,193.995575 
	C101.151649,193.268463 102.598839,192.576965 104.353737,191.768280 
	C109.048500,188.675446 113.604675,185.911713 117.735748,182.615234 
	C119.293297,181.372360 119.866905,178.896439 120.889053,176.982605 
	C120.889053,176.982605 120.887833,176.892792 121.238136,176.806152 
	C122.761642,175.336075 126.658218,175.260971 123.868378,171.973663 
z"/>
<path fill="#5685C3" opacity="1.000000" stroke="none" 
	d="
M96.766556,300.753662 
	C96.636887,298.411896 96.479858,296.033569 97.194832,293.955231 
	C101.006386,282.875519 105.136780,271.905304 108.924622,260.817841 
	C109.965134,257.772125 111.422264,255.843262 114.777679,256.058960 
	C118.530205,256.300201 123.060524,254.730194 124.911270,259.902802 
	C129.471649,272.648438 134.020004,285.398926 138.433029,298.195770 
	C138.751083,299.118073 138.307220,300.957001 137.581604,301.469849 
	C134.745041,303.474548 126.682739,301.350708 125.800758,298.134857 
	C124.772964,294.387360 122.681519,293.617493 119.295776,293.968658 
	C117.155380,294.190643 114.933388,293.728973 112.817291,294.042206 
	C111.617088,294.219818 110.055252,295.073608 109.514694,296.082733 
	C105.971024,302.698090 105.861870,302.818634 98.635895,300.953003 
	C98.161057,300.830414 97.640747,300.883942 96.766556,300.753662 
z"/>
<path fill="#5683C0" opacity="1.000000" stroke="none" 
	d="
M231.252518,295.176514 
	C221.458755,304.543427 208.319809,305.239319 198.749146,297.069672 
	C191.956543,291.271423 189.516998,283.198639 191.386993,274.746094 
	C193.314621,266.033051 198.801971,259.566772 207.900925,257.043823 
	C217.854156,254.283966 225.813141,257.688385 232.520493,265.046295 
	C234.719101,267.458160 234.347137,269.123383 231.661118,270.865021 
	C228.089706,273.180756 225.031693,275.469482 221.169998,270.850250 
	C218.665802,267.854797 210.580963,268.172485 207.904953,270.561340 
	C202.897949,275.031097 201.606750,280.264954 204.363602,284.916687 
	C206.766693,288.971497 214.138000,291.592590 218.389618,289.854401 
	C218.975510,289.614838 219.455154,289.096466 219.958298,288.676422 
	C225.493027,284.055603 227.116989,283.953979 232.538071,288.374969 
	C235.738998,290.985413 233.404572,292.973511 231.252518,295.176514 
z"/>
<path fill="#5583C1" opacity="1.000000" stroke="none" 
	d="
M167.405945,287.784210 
	C165.187332,287.921753 163.378891,287.921753 160.942581,287.921753 
	C160.942581,290.843109 160.802368,293.459106 160.974335,296.054474 
	C161.255951,300.304504 159.431305,302.032257 155.166473,302.023651 
	C150.896530,302.015045 148.052185,300.813385 148.042175,296.033722 
	C148.022675,286.723816 148.018448,277.413757 148.049530,268.103912 
	C148.092194,255.322968 146.659302,255.939194 160.111618,256.063812 
	C162.928818,256.089905 165.849854,255.789291 168.541718,256.416931 
	C176.578186,258.290741 181.940750,264.275696 181.486542,271.427368 
	C181.070480,277.978790 178.076187,285.341125 167.405945,287.784210 
M160.997192,269.750977 
	C160.997192,271.695068 160.997192,273.639160 160.997192,276.851685 
	C164.117447,275.842896 166.757050,275.420502 168.810455,274.092041 
	C169.529816,273.626617 169.143738,269.595215 168.687729,269.480682 
	C166.262878,268.871674 163.655518,268.989471 160.997192,269.750977 
z"/>
<path fill="#577AAF" opacity="1.000000" stroke="none" 
	d="
M99.311600,222.928345 
	C100.138802,221.907898 101.241661,220.435989 102.628120,220.085327 
	C118.862000,215.979385 131.399384,206.658585 140.389954,192.776093 
	C146.139038,183.898819 151.237320,174.583496 156.296310,165.284454 
	C158.181183,161.819824 160.359497,159.976715 164.409851,160.000839 
	C180.708694,160.097961 197.009171,160.100113 213.307632,159.965637 
	C218.075165,159.926285 220.067139,162.244843 219.933807,166.640472 
	C219.631775,176.597244 219.531464,186.579895 218.677719,196.494202 
	C217.942032,205.037582 212.835770,210.253906 205.496414,212.108948 
	C203.827759,212.530716 201.794891,214.219727 201.249817,215.785141 
	C200.274185,218.587036 202.343674,219.914459 205.037048,220.317337 
	C205.610916,220.403152 206.103714,221.030975 206.802048,221.721558 
	C206.304535,222.021530 205.624603,222.092346 204.975723,221.981430 
	C202.773148,221.604996 198.822311,221.459793 198.694122,220.696426 
	C198.173767,217.598022 198.732315,214.289444 199.157150,211.093506 
	C199.218628,210.630920 200.728622,210.023819 201.550171,210.050095 
	C213.020859,210.417007 216.164749,202.683594 216.845093,192.572189 
	C217.508591,182.711029 216.989304,172.770294 216.989304,162.327759 
	C215.792160,162.232178 214.377319,162.022903 212.962189,162.020996 
	C196.978424,161.999451 180.993668,162.099365 165.011597,161.934799 
	C161.861801,161.902359 160.180954,162.978775 159.023773,165.781387 
	C153.482910,179.200989 145.694611,191.285751 136.159866,202.146622 
	C126.467255,213.187317 114.290062,220.284103 99.311600,222.928345 
z"/>
<path fill="#587FBA" opacity="1.000000" stroke="none" 
	d="
M231.972473,68.044907 
	C230.554031,69.326721 229.281464,70.838753 227.689835,71.847260 
	C222.881531,74.893990 222.471512,77.199753 226.223541,81.315216 
	C236.953262,93.084335 255.244080,88.252075 262.136780,79.746185 
	C271.171753,68.596687 270.854095,56.866592 261.582794,46.114094 
	C260.195251,44.504875 259.300323,42.470863 258.109253,40.296768 
	C264.556580,42.917381 267.354065,48.773060 269.423798,55.013428 
	C276.126953,75.224022 259.341309,91.811890 242.348694,90.897804 
	C232.509094,90.368507 224.561935,85.927010 220.154114,76.134583 
	C220.837784,75.054359 221.360748,74.495705 222.176834,73.762268 
	C225.637466,71.739967 228.804977,69.892433 231.972473,68.044907 
z"/>
<path fill="#4469AF" opacity="1.000000" stroke="none" 
	d="
M120.575325,177.104279 
	C119.866905,178.896439 119.293297,181.372360 117.735748,182.615234 
	C113.604675,185.911713 109.048500,188.675446 104.347809,191.351715 
	C105.061813,186.048798 106.541878,181.081299 106.944183,176.027985 
	C107.178429,173.085663 105.685692,170.005859 104.795830,166.728912 
	C103.447922,165.625305 102.274162,164.780670 101.100410,163.936050 
	C100.715233,163.099762 100.330055,162.263474 100.027321,161.200378 
	C108.802269,164.352097 114.201111,170.594269 116.434708,180.552017 
	C117.969772,179.217834 119.115685,178.221878 120.575325,177.104279 
z"/>
<path fill="#577AAF" opacity="1.000000" stroke="none" 
	d="
M243.357330,114.785469 
	C242.662247,112.435356 242.180618,109.849762 242.008148,107.243706 
	C241.785950,103.886246 240.400803,101.933136 236.804031,101.990952 
	C233.148712,102.049698 229.490677,101.979141 225.836838,102.077232 
	C221.888031,102.183258 219.803223,103.902626 219.916473,108.256989 
	C220.128143,116.395363 219.968765,124.543236 219.976624,132.687149 
	C219.979263,135.434448 219.361237,137.928726 216.051620,137.912537 
	C206.601410,137.866364 197.152237,137.609192 187.805237,137.232758 
	C194.359024,137.020630 200.813766,137.134018 207.259964,136.949112 
	C210.495682,136.856323 213.715851,136.220703 216.943054,135.830566 
	C216.963318,126.049484 216.976669,116.268379 217.006485,106.487328 
	C217.024429,100.601761 217.598328,100.035461 223.663132,99.995583 
	C228.139420,99.966141 232.616425,99.953308 237.092422,99.999321 
	C242.472885,100.054634 243.897659,101.392136 243.982254,106.613319 
	C244.025024,109.253670 243.807846,111.898232 243.357330,114.785469 
z"/>
<path fill="#577AAF" opacity="1.000000" stroke="none" 
	d="
M209.385559,221.869614 
	C210.939178,221.197281 212.896973,220.133835 214.867905,220.108917 
	C227.355698,219.950974 239.846420,220.029312 252.336136,220.010284 
	C253.831116,220.008011 255.675201,220.408859 256.735931,219.696854 
	C258.192749,218.718994 259.541534,216.980011 259.962402,215.320160 
	C260.163361,214.527725 258.297150,212.873642 257.057343,212.119095 
	C253.823914,210.151184 250.419357,208.464371 247.045898,206.300751 
	C250.938095,207.289413 254.939285,208.473175 258.757324,210.089539 
	C260.068146,210.644470 261.252411,212.126556 261.879303,213.471771 
	C262.388489,214.564438 261.809845,216.111023 262.005707,217.412323 
	C262.702454,222.042084 260.240143,223.154800 256.243225,223.016556 
	C244.633530,222.615005 233.020859,222.292358 221.407928,221.994736 
	C217.539459,221.895584 213.666641,221.965851 209.385559,221.869614 
z"/>
<path fill="#5D7DAB" opacity="1.000000" stroke="none" 
	d="
M216.481293,135.888763 
	C213.715851,136.220703 210.495682,136.856323 207.259964,136.949112 
	C200.813766,137.134018 194.359024,137.020630 187.435104,137.045746 
	C185.901352,137.055634 184.840302,137.050232 182.922302,137.031418 
	C178.374863,137.020248 174.684372,137.022507 170.993866,137.024780 
	C170.192963,135.737411 168.398163,134.031555 168.737991,133.224503 
	C175.493958,117.179871 182.478195,101.230988 189.508087,85.303276 
	C189.834534,84.563629 191.016449,84.201553 192.145248,83.697632 
	C187.560135,94.046776 182.437515,104.275909 177.768570,114.708084 
	C174.784378,121.375854 172.470840,128.343765 169.562103,135.946960 
	C185.549652,135.946960 200.784592,135.946960 216.481293,135.888763 
z"/>
<path fill="#4064AB" opacity="1.000000" stroke="none" 
	d="
M221.883698,73.937042 
	C221.360748,74.495705 220.837784,75.054359 220.077545,75.776428 
	C219.208389,72.097229 218.610779,68.248466 217.923431,64.415802 
	C217.720428,63.283844 217.264038,62.197334 216.565277,61.043304 
	C217.510986,60.126526 218.731537,58.699482 220.134796,58.488632 
	C224.721283,57.799488 229.374344,57.553440 234.420547,57.493565 
	C233.265610,59.548626 231.939621,61.623711 230.061325,62.859009 
	C227.101227,64.805786 223.769882,66.188057 220.809036,67.700333 
	C221.223495,70.105606 221.553604,72.021324 221.883698,73.937042 
z"/>
<path fill="#577AAF" opacity="1.000000" stroke="none" 
	d="
M242.873627,160.569687 
	C242.207275,149.967712 241.483261,138.904800 241.125534,127.830048 
	C241.015915,124.436386 241.910477,121.010284 242.565384,117.290894 
	C242.842682,131.356552 242.899780,145.730377 242.873627,160.569687 
z"/>
<path fill="#577AAF" opacity="1.000000" stroke="none" 
	d="
M246.034241,203.557892 
	C245.105804,202.739014 243.360107,201.537628 243.316681,200.277573 
	C242.907654,188.410767 242.789169,176.533936 242.783203,164.289185 
	C243.306305,165.766327 243.845612,167.605331 243.924210,169.463791 
	C244.339645,179.286667 244.603973,189.115952 245.017960,198.938904 
	C245.077576,200.353363 245.664047,201.745636 246.034241,203.557892 
z"/>
<path fill="#587FBA" opacity="1.000000" stroke="none" 
	d="
M257.912720,39.631355 
	C252.044754,37.228077 246.054413,34.501434 240.000031,31.470551 
	C245.887436,33.880207 251.838882,36.594097 257.912720,39.631355 
z"/>
<path fill="#5D7DAB" opacity="1.000000" stroke="none" 
	d="
M197.364822,76.940155 
	C198.919846,71.260307 202.603271,67.164268 208.747375,65.013763 
	C205.308701,68.939369 201.492386,72.877586 197.364822,76.940155 
z"/>
<path fill="#587FBA" opacity="1.000000" stroke="none" 
	d="
M237.563812,31.123283 
	C233.299973,34.618202 228.470062,32.797905 223.314636,31.296837 
	C227.686203,31.096098 232.392960,31.073597 237.563812,31.123283 
z"/>
<path fill="#4469AF" opacity="1.000000" stroke="none" 
	d="
M123.557823,172.097626 
	C126.658218,175.260971 122.761642,175.336075 121.283035,176.804871 
	C121.734177,175.334030 122.490723,173.777817 123.557823,172.097626 
z"/>
<path fill="#5D7DAB" opacity="1.000000" stroke="none" 
	d="
M194.346741,80.945625 
	C194.808075,79.758652 195.582062,78.455170 196.711548,77.101555 
	C196.264481,78.310654 195.461929,79.569885 194.346741,80.945625 
z"/>
<path fill="#5D7DAB" opacity="1.000000" stroke="none" 
	d="
M192.993179,83.304810 
	C192.995804,82.742126 193.251740,82.017509 193.789749,81.157913 
	C193.796722,81.729576 193.521606,82.436226 192.993179,83.304810 
z"/>
<path fill="#577AAF" opacity="1.000000" stroke="none" 
	d="
M246.853424,204.779602 
	C246.588608,204.838791 246.390503,204.606964 246.122681,204.144836 
	C246.315704,204.128357 246.604767,204.319717 246.853424,204.779602 
z"/>
<path fill="#577AAF" opacity="1.000000" stroke="none" 
	d="
M207.034302,222.267883 
	C207.144363,222.019531 207.324173,222.012726 207.773636,222.015091 
	C207.730209,222.185989 207.417130,222.347702 207.034302,222.267883 
z"/>
<path fill="#4673BF" opacity="1.000000" stroke="none" 
	d="
M222.176834,73.762268 
	C221.553604,72.021324 221.223495,70.105606 220.809036,67.700333 
	C223.769882,66.188057 227.101227,64.805786 230.061325,62.859009 
	C231.939621,61.623711 233.265610,59.548626 234.853577,57.504402 
	C237.684616,57.685822 240.501389,58.212982 243.569824,59.203842 
	C242.230896,61.432774 240.640274,63.197998 239.049667,64.963219 
	C238.866150,64.975410 238.682617,64.987610 237.905975,65.090614 
	C236.223282,66.106308 235.133743,67.031204 234.044189,67.956108 
	C233.583984,67.973618 233.123764,67.991135 232.318024,68.026779 
	C228.804977,69.892433 225.637466,71.739967 222.176834,73.762268 
z"/>
<path fill="#4977C3" opacity="1.000000" stroke="none" 
	d="
M104.969986,166.987915 
	C105.685692,170.005859 107.178429,173.085663 106.944183,176.027985 
	C106.541878,181.081299 105.061813,186.048798 104.040100,191.468903 
	C102.598839,192.576965 101.151649,193.268463 99.193581,193.688080 
	C98.784439,191.967163 98.747818,190.492401 99.011581,189.073502 
	C100.237129,182.480850 101.484581,175.890472 102.896896,169.336487 
	C103.088776,168.446075 104.254944,167.765610 104.969986,166.987915 
z"/>
<path fill="#4E81C9" opacity="1.000000" stroke="none" 
	d="
M104.795830,166.728912 
	C104.254944,167.765610 103.088776,168.446075 102.896896,169.336487 
	C101.484581,175.890472 100.237129,182.480850 99.011581,189.073502 
	C98.747818,190.492401 98.784439,191.967163 98.842865,193.723663 
	C97.215683,196.056396 95.644501,195.734528 95.301956,193.162170 
	C95.029518,191.116180 95.503006,188.915161 95.930275,186.841690 
	C97.478065,179.330643 99.145950,171.844345 100.934464,164.142380 
	C102.274162,164.780670 103.447922,165.625305 104.795830,166.728912 
z"/>
<path fill="#587FBA" opacity="1.000000" stroke="none" 
	d="
M239.419067,64.955490 
	C240.640274,63.197998 242.230896,61.432774 243.927643,59.349159 
	C244.454865,60.137684 245.424149,62.078568 245.210068,62.219288 
	C243.530716,63.323238 241.624649,64.082352 239.419067,64.955490 
z"/>
<path fill="#577AAF" opacity="1.000000" stroke="none" 
	d="
M171.347321,137.221527 
	C174.684372,137.022507 178.374863,137.020248 182.523712,137.024567 
	C179.221619,137.160202 175.461212,137.289246 171.347321,137.221527 
z"/>
<path fill="#587FBA" opacity="1.000000" stroke="none" 
	d="
M234.363312,67.884308 
	C235.133743,67.031204 236.223282,66.106308 237.630707,65.109077 
	C236.859863,65.961998 235.771149,66.887253 234.363312,67.884308 
z"/>
<path fill="#000000" opacity="1.000000" stroke="none" 
	d="
M161.054260,269.303314 
	C163.655518,268.989471 166.262878,268.871674 168.687729,269.480682 
	C169.143738,269.595215 169.529816,273.626617 168.810455,274.092041 
	C166.757050,275.420502 164.117447,275.842896 160.997192,276.851685 
	C160.997192,273.639160 160.997192,271.695068 161.054260,269.303314 
z"/>
</svg>