<svg version="1.1" id="Layer_1" xmlns="http://www.w3.org/2000/svg" xmlns:xlink="http://www.w3.org/1999/xlink" x="0px" y="0px"
	 width="100%" viewBox="0 0 288 308" enable-background="new 0 0 288 308" xml:space="preserve">
<path fill="#000000" opacity="1.000000" stroke="none" 
	d="
M289.000000,121.000000 
	C289.000000,183.999985 289.000000,246.499985 289.000000,309.000000 
	C193.000031,309.000000 97.000053,309.000000 1.000064,309.000000 
	C1.000043,206.333374 1.000043,103.666763 1.000021,1.000105 
	C96.999939,1.000070 192.999878,1.000070 288.999908,1.000035 
	C289.000000,40.833332 289.000000,80.666664 289.000000,121.000000 
M174.000763,68.000954 
	C174.000763,68.000954 174.000732,67.995827 174.569763,67.833382 
	C175.051285,67.226463 175.532822,66.619545 176.624741,65.738518 
	C179.755554,62.831074 182.886383,59.923634 186.000000,57.000000 
	C186.000000,57.000000 186.014481,57.019001 186.717316,56.957813 
	C188.116043,56.380180 189.514755,55.802547 191.535660,54.967976 
	C189.726486,64.603165 192.599121,72.970688 199.189407,78.074509 
	C213.128754,88.869766 229.529587,87.675934 240.527969,72.476974 
	C249.595001,59.946968 245.555969,42.091682 230.817352,32.081104 
	C213.038315,20.005436 194.936401,23.266273 177.002151,31.998146 
	C177.002151,31.998146 176.976456,31.956793 176.249359,32.027897 
	C170.840759,35.684998 165.432144,39.342102 159.996582,42.991131 
	C159.996582,42.991131 159.994934,43.019138 159.348633,43.199165 
	C144.874344,56.832188 134.926025,73.499878 127.776947,91.800911 
	C121.144867,108.778488 115.426613,126.110931 109.033554,143.185120 
	C106.754791,149.271103 103.676750,155.057800 101.000069,161.000961 
	C101.000069,161.000961 100.975105,160.968079 100.331612,161.230133 
	C97.367493,165.599472 94.403374,169.968826 91.127487,174.797745 
	C84.052826,156.251846 74.650635,152.373749 61.564365,152.978470 
	C52.134995,153.414200 40.821526,160.897568 38.003185,169.002289 
	C38.003185,169.002289 37.992096,168.975372 37.338959,169.309952 
	C26.511620,192.143097 42.722450,215.799011 66.951096,216.845062 
	C86.482147,217.688293 100.816811,207.491379 112.710945,192.705658 
	C112.710945,192.705658 112.790627,192.454315 113.297928,192.069870 
	C119.528564,182.009933 125.868660,172.015182 131.922272,161.849838 
	C133.709732,158.848328 134.723480,155.836456 139.209183,155.891968 
	C156.457443,156.105423 173.709335,156.024612 191.175766,156.568527 
	C191.441238,157.026703 191.706711,157.484879 191.306549,158.217010 
	C191.269821,159.145447 191.233093,160.073868 191.037750,161.926025 
	C191.081940,167.616379 191.126114,173.306732 191.033661,179.906326 
	C191.025940,182.238953 191.337082,184.624893 190.957565,186.895370 
	C188.864349,199.418060 186.554642,203.368423 176.631989,203.898285 
	C171.599823,204.167007 172.051804,206.917419 172.017838,210.156860 
	C171.980682,213.699478 172.536072,216.112289 177.140350,216.019516 
	C189.299789,215.774475 201.467834,215.960129 213.632462,215.969101 
	C220.937561,215.974487 228.242661,215.970078 235.966522,215.970078 
	C235.966522,213.010300 235.839325,210.701096 235.997208,208.411560 
	C236.218155,205.207138 234.950027,204.023773 231.678024,203.957047 
	C224.803680,203.816833 220.096359,200.272888 219.159256,193.408325 
	C218.136215,185.914124 218.221588,178.257339 218.009109,170.666245 
	C217.640488,157.497879 217.227966,144.326050 217.189224,131.154633 
	C217.159546,121.069061 217.820450,110.982964 217.897552,100.894981 
	C217.942535,95.011086 216.691040,94.002609 211.004669,93.997025 
	C206.005554,93.992111 200.998764,94.176376 196.009827,93.953400 
	C192.238541,93.784859 191.000488,95.589035 191.007736,98.973488 
	C191.029266,109.040833 191.015457,119.108253 191.015457,129.610474 
	C175.877808,129.610474 160.530914,129.610474 144.245178,129.610474 
	C151.142960,109.945854 158.298294,90.974548 170.034149,73.326927 
	C170.285492,72.983353 170.536850,72.639771 171.105133,72.155281 
	C171.105133,72.155281 171.238144,71.834930 171.544510,71.801453 
	C171.767578,71.680817 171.828857,71.503639 171.948013,70.644821 
	C171.986618,70.427368 172.025238,70.209915 172.521744,69.843987 
	C172.813156,69.653488 172.969849,69.384514 173.499985,68.890991 
	C173.664749,68.594986 173.829498,68.298981 174.000763,68.000954 
M87.132492,250.131027 
	C86.087692,251.174454 84.550789,252.031372 84.073769,253.290009 
	C78.963120,266.774292 74.019997,280.322083 69.045403,293.813293 
	C73.859497,296.970947 79.505432,296.443024 81.942970,292.875000 
	C83.272919,290.928223 83.107620,287.527039 86.957726,287.859100 
	C89.627380,288.089325 92.387947,287.483643 95.018105,287.867188 
	C96.470726,288.079010 98.355843,289.255280 98.981400,290.522369 
	C101.570671,295.767090 107.919876,297.414642 112.803741,293.762054 
	C108.178413,280.260773 103.637787,266.716980 98.789497,253.284256 
	C98.281570,251.876984 96.086220,250.625122 94.440880,250.197723 
	C92.419418,249.672638 90.153137,250.090118 87.132492,250.131027 
M192.703400,283.850830 
	C189.444031,283.721283 185.759277,284.523712 183.013000,283.270142 
	C177.121262,280.580719 175.179672,273.065063 178.287521,268.114960 
	C182.292038,261.736725 189.617081,259.683960 194.841599,264.639008 
	C199.119965,268.696716 202.064926,266.414673 205.569214,264.599792 
	C207.968552,263.357178 208.219681,261.425354 206.576736,259.389587 
	C201.256561,252.797348 194.231354,249.327026 185.870972,250.214127 
	C177.011795,251.154160 169.813965,255.833115 166.627411,264.302002 
	C162.590744,275.030243 165.088577,286.286530 175.701263,292.633362 
	C186.860107,299.306793 196.691147,296.470093 205.666977,288.640381 
	C209.036652,285.701019 208.520752,283.598969 204.814133,281.475677 
	C201.049515,279.319183 197.470886,277.361420 194.687393,282.749420 
	C194.516251,283.080658 193.796616,283.128571 192.703400,283.850830 
M123.059830,292.386932 
	C123.109856,292.883942 123.070747,293.784760 123.223068,293.818390 
	C126.283768,294.494019 129.436096,295.677795 132.407227,295.337646 
	C133.453690,295.217865 134.663574,291.347015 134.771057,289.138824 
	C135.149185,281.369965 134.979767,281.361725 142.344833,280.902710 
	C147.495361,280.581696 153.720779,275.054016 154.865952,269.784912 
	C156.393204,262.757904 153.564346,256.233032 148.542404,252.898285 
	C141.142059,247.984238 133.070709,250.834808 125.313110,250.279083 
	C124.621696,250.229568 123.218964,252.352921 123.096367,253.563324 
	C122.717209,257.306671 122.706696,261.096802 122.717560,264.868256 
	C122.743141,273.750214 122.864006,282.631897 123.059830,292.386932 
z"/>
<path fill="#884DFA" opacity="1.000000" stroke="none" 
	d="
M172.991791,69.037056 
	C172.969849,69.384514 172.813156,69.653488 171.977386,69.937263 
	C171.218063,70.785759 171.003128,71.540977 170.788193,72.296196 
	C170.536850,72.639771 170.285492,72.983353 169.530045,73.629181 
	C163.608078,74.472832 163.160675,79.420235 161.538849,82.935150 
	C155.152618,96.775703 149.021896,110.737625 143.025620,124.752594 
	C141.125519,129.193619 142.513199,131.801147 146.707428,131.849701 
	C160.357819,132.007660 174.012100,131.844604 187.664764,131.779068 
	C192.327454,131.756683 194.522369,129.710114 194.013107,124.724579 
	C193.440170,119.115845 193.539276,113.441231 193.064133,107.819107 
	C192.241486,98.085052 193.987091,95.975281 203.370377,95.980751 
	C205.368851,95.981918 207.367889,95.964546 209.365707,96.004181 
	C214.910080,96.114166 216.279282,97.747147 215.967682,103.392509 
	C215.584152,110.341301 215.053543,117.300751 215.110794,124.251274 
	C215.242279,140.216309 215.643188,156.179916 216.034698,172.141632 
	C216.200241,178.890274 216.401993,185.651047 216.973877,192.373428 
	C217.714584,201.080063 221.080948,204.564178 229.851166,205.901093 
	C232.703262,206.335861 234.571426,207.609619 233.772720,210.304153 
	C233.325180,211.813980 231.040710,213.802780 229.557236,213.825394 
	C212.740677,214.081650 195.918930,213.987701 179.098633,214.019592 
	C176.528351,214.024460 174.978714,213.159790 174.969040,210.296112 
	C174.960602,207.795502 175.645203,206.395645 178.499619,205.940582 
	C186.798996,204.617477 191.116348,200.308273 192.152191,191.905914 
	C192.673645,187.675812 192.130386,183.314453 192.260071,178.676117 
	C192.621155,172.560684 192.790787,166.781555 192.958755,160.668793 
	C192.628784,159.537766 192.300491,158.740402 191.972183,157.943039 
	C191.706711,157.484879 191.441238,157.026703 191.278168,156.215988 
	C190.161285,155.243912 188.945618,154.093384 187.722183,154.085068 
	C171.285324,153.973221 154.847260,153.993439 138.409744,154.049942 
	C134.808350,154.062317 132.454453,155.677750 130.665237,159.132812 
	C126.527809,167.122391 121.747620,174.776413 117.384987,182.653397 
	C115.640831,185.802551 114.309738,189.180511 112.790627,192.454315 
	C112.790627,192.454315 112.710945,192.705658 112.238007,192.649292 
	C110.627342,193.148254 109.340851,193.517639 108.376244,194.289352 
	C102.486801,199.001083 97.083786,204.463211 90.743690,208.439636 
	C77.533295,216.725021 59.783646,218.398468 45.900280,205.223190 
	C39.167046,198.833344 33.462231,183.005814 37.148453,175.318985 
	C38.025467,173.490158 37.741859,171.104767 37.992096,168.975372 
	C37.992096,168.975372 38.003185,169.002289 38.338631,168.929047 
	C40.735786,167.081039 43.158588,165.587158 44.795933,163.482285 
	C51.453083,154.924194 68.728394,152.161102 77.378540,158.621933 
	C82.212227,162.232224 86.289474,166.414200 87.650864,172.738693 
	C87.900108,173.896561 90.517670,175.532135 91.748016,175.311066 
	C95.876762,174.569214 101.571457,165.215958 100.975105,160.968079 
	C100.975105,160.968079 101.000069,161.000961 101.322037,160.923645 
	C104.654663,155.971298 108.475441,151.411377 110.518127,146.159836 
	C115.811333,132.551575 120.337654,118.644371 125.140144,104.846069 
	C131.785568,85.752785 140.999664,68.091301 153.895706,52.409077 
	C156.251419,49.544418 157.977966,46.162357 159.994934,43.019138 
	C159.994934,43.019138 159.996582,42.991131 160.354828,43.039101 
	C168.034790,42.154099 172.140732,36.522278 176.976456,31.956793 
	C176.976456,31.956793 177.002151,31.998146 177.330048,32.018436 
	C181.930054,31.260044 186.417084,31.069464 190.436859,29.600380 
	C207.394455,23.402973 222.238205,26.651188 235.192780,38.929794 
	C241.637100,45.037861 243.265350,52.757256 242.508270,61.431938 
	C241.669662,71.040947 234.245148,75.563606 227.736053,80.113754 
	C224.230988,82.563950 218.061523,83.492378 213.928177,82.275284 
	C205.440140,79.775917 197.191376,75.663391 194.680862,65.735413 
	C194.040192,63.201817 194.445572,60.394653 193.744034,57.888504 
	C193.225922,56.037647 191.690796,54.471485 190.608795,52.778488 
	C189.077362,54.191994 187.545929,55.605499 186.014481,57.019005 
	C186.014481,57.019001 186.000000,57.000000 185.623352,57.012886 
	C179.268494,57.225498 176.891724,61.957092 173.956177,66.327423 
	C173.966888,67.106255 173.983810,67.551041 174.000732,67.995827 
	C174.000732,67.995827 174.000763,68.000954 173.778946,68.118866 
	C173.283279,68.443207 173.094833,68.709961 172.991791,69.037056 
z"/>
<path fill="#834FEA" opacity="1.000000" stroke="none" 
	d="
M87.562592,250.115601 
	C90.153137,250.090118 92.419418,249.672638 94.440880,250.197723 
	C96.086220,250.625122 98.281570,251.876984 98.789497,253.284256 
	C103.637787,266.716980 108.178413,280.260773 112.803741,293.762054 
	C107.919876,297.414642 101.570671,295.767090 98.981400,290.522369 
	C98.355843,289.255280 96.470726,288.079010 95.018105,287.867188 
	C92.387947,287.483643 89.627380,288.089325 86.957726,287.859100 
	C83.107620,287.527039 83.272919,290.928223 81.942970,292.875000 
	C79.505432,296.443024 73.859497,296.970947 69.045403,293.813293 
	C74.019997,280.322083 78.963120,266.774292 84.073769,253.290009 
	C84.550789,252.031372 86.087692,251.174454 87.562592,250.115601 
z"/>
<path fill="#824FE8" opacity="1.000000" stroke="none" 
	d="
M193.017792,283.579559 
	C193.796616,283.128571 194.516251,283.080658 194.687393,282.749420 
	C197.470886,277.361420 201.049515,279.319183 204.814133,281.475677 
	C208.520752,283.598969 209.036652,285.701019 205.666977,288.640381 
	C196.691147,296.470093 186.860107,299.306793 175.701263,292.633362 
	C165.088577,286.286530 162.590744,275.030243 166.627411,264.302002 
	C169.813965,255.833115 177.011795,251.154160 185.870972,250.214127 
	C194.231354,249.327026 201.256561,252.797348 206.576736,259.389587 
	C208.219681,261.425354 207.968552,263.357178 205.569214,264.599792 
	C202.064926,266.414673 199.119965,268.696716 194.841599,264.639008 
	C189.617081,259.683960 182.292038,261.736725 178.287521,268.114960 
	C175.179672,273.065063 177.121262,280.580719 183.013000,283.270142 
	C185.759277,284.523712 189.444031,283.721283 193.017792,283.579559 
z"/>
<path fill="#824FEA" opacity="1.000000" stroke="none" 
	d="
M123.003082,291.950317 
	C122.864006,282.631897 122.743141,273.750214 122.717560,264.868256 
	C122.706696,261.096802 122.717209,257.306671 123.096367,253.563324 
	C123.218964,252.352921 124.621696,250.229568 125.313110,250.279083 
	C133.070709,250.834808 141.142059,247.984238 148.542404,252.898285 
	C153.564346,256.233032 156.393204,262.757904 154.865952,269.784912 
	C153.720779,275.054016 147.495361,280.581696 142.344833,280.902710 
	C134.979767,281.361725 135.149185,281.369965 134.771057,289.138824 
	C134.663574,291.347015 133.453690,295.217865 132.407227,295.337646 
	C129.436096,295.677795 126.283768,294.494019 123.223068,293.818390 
	C123.070747,293.784760 123.109856,292.883942 123.003082,291.950317 
M139.630951,261.923401 
	C138.065369,262.108582 135.231659,262.058319 135.146255,262.518311 
	C134.694489,264.951660 134.934219,267.513336 134.934219,270.030548 
	C135.475616,270.424805 136.017014,270.819061 136.558411,271.213348 
	C138.916183,269.790985 141.273956,268.368622 143.631729,266.946259 
	C142.562927,265.267395 141.494125,263.588531 139.630951,261.923401 
z"/>
<path fill="#7E56D4" opacity="1.000000" stroke="none" 
	d="
M192.068604,179.012451 
	C192.130386,183.314453 192.673645,187.675812 192.152191,191.905914 
	C191.116348,200.308273 186.798996,204.617477 178.499619,205.940582 
	C175.645203,206.395645 174.960602,207.795502 174.969040,210.296112 
	C174.978714,213.159790 176.528351,214.024460 179.098633,214.019592 
	C195.918930,213.987701 212.740677,214.081650 229.557236,213.825394 
	C231.040710,213.802780 233.325180,211.813980 233.772720,210.304153 
	C234.571426,207.609619 232.703262,206.335861 229.851166,205.901093 
	C221.080948,204.564178 217.714584,201.080063 216.973877,192.373428 
	C216.401993,185.651047 216.200241,178.890274 216.034698,172.141632 
	C215.643188,156.179916 215.242279,140.216309 215.110794,124.251274 
	C215.053543,117.300751 215.584152,110.341301 215.967682,103.392509 
	C216.279282,97.747147 214.910080,96.114166 209.365707,96.004181 
	C207.367889,95.964546 205.368851,95.981918 203.370377,95.980751 
	C193.987091,95.975281 192.241486,98.085052 193.064133,107.819107 
	C193.539276,113.441231 193.440170,119.115845 194.013107,124.724579 
	C194.522369,129.710114 192.327454,131.756683 187.664764,131.779068 
	C174.012100,131.844604 160.357819,132.007660 146.707428,131.849701 
	C142.513199,131.801147 141.125519,129.193619 143.025620,124.752594 
	C149.021896,110.737625 155.152618,96.775703 161.538849,82.935150 
	C163.160675,79.420235 163.608078,74.472832 169.390228,73.918823 
	C158.298294,90.974548 151.142960,109.945854 144.245178,129.610474 
	C160.530914,129.610474 175.877808,129.610474 191.015457,129.610474 
	C191.015457,119.108253 191.029266,109.040833 191.007736,98.973488 
	C191.000488,95.589035 192.238541,93.784859 196.009827,93.953400 
	C200.998764,94.176376 206.005554,93.992111 211.004669,93.997025 
	C216.691040,94.002609 217.942535,95.011086 217.897552,100.894981 
	C217.820450,110.982964 217.159546,121.069061 217.189224,131.154633 
	C217.227966,144.326050 217.640488,157.497879 218.009109,170.666245 
	C218.221588,178.257339 218.136215,185.914124 219.159256,193.408325 
	C220.096359,200.272888 224.803680,203.816833 231.678024,203.957047 
	C234.950027,204.023773 236.218155,205.207138 235.997208,208.411560 
	C235.839325,210.701096 235.966522,213.010300 235.966522,215.970078 
	C228.242661,215.970078 220.937561,215.974487 213.632462,215.969101 
	C201.467834,215.960129 189.299789,215.774475 177.140350,216.019516 
	C172.536072,216.112289 171.980682,213.699478 172.017838,210.156860 
	C172.051804,206.917419 171.599823,204.167007 176.631989,203.898285 
	C186.554642,203.368423 188.864349,199.418060 190.957565,186.895370 
	C191.337082,184.624893 191.025940,182.238953 191.326553,179.455368 
	C191.619446,179.004410 192.068604,179.012451 192.068604,179.012451 
z"/>
<path fill="#7E58D8" opacity="1.000000" stroke="none" 
	d="
M186.365906,56.988411 
	C187.545929,55.605499 189.077362,54.191994 190.608795,52.778488 
	C191.690796,54.471485 193.225922,56.037647 193.744034,57.888504 
	C194.445572,60.394653 194.040192,63.201817 194.680862,65.735413 
	C197.191376,75.663391 205.440140,79.775917 213.928177,82.275284 
	C218.061523,83.492378 224.230988,82.563950 227.736053,80.113754 
	C234.245148,75.563606 241.669662,71.040947 242.508270,61.431938 
	C243.265350,52.757256 241.637100,45.037861 235.192780,38.929794 
	C222.238205,26.651188 207.394455,23.402973 190.436859,29.600380 
	C186.417084,31.069464 181.930054,31.260044 177.310532,32.004524 
	C194.936401,23.266273 213.038315,20.005436 230.817352,32.081104 
	C245.555969,42.091682 249.595001,59.946968 240.527969,72.476974 
	C229.529587,87.675934 213.128754,88.869766 199.189407,78.074509 
	C192.599121,72.970688 189.726486,64.603165 191.535660,54.967976 
	C189.514755,55.802547 188.116043,56.380180 186.365906,56.988411 
z"/>
<path fill="#7E58D8" opacity="1.000000" stroke="none" 
	d="
M159.671783,43.109154 
	C157.977966,46.162357 156.251419,49.544418 153.895706,52.409077 
	C140.999664,68.091301 131.785568,85.752785 125.140144,104.846069 
	C120.337654,118.644371 115.811333,132.551575 110.518127,146.159836 
	C108.475441,151.411377 104.654663,155.971298 101.303772,160.913712 
	C103.676750,155.057800 106.754791,149.271103 109.033554,143.185120 
	C115.426613,126.110931 121.144867,108.778488 127.776947,91.800911 
	C134.926025,73.499878 144.874344,56.832188 159.671783,43.109154 
z"/>
<path fill="#7E58D8" opacity="1.000000" stroke="none" 
	d="
M37.665527,169.142670 
	C37.741859,171.104767 38.025467,173.490158 37.148453,175.318985 
	C33.462231,183.005814 39.167046,198.833344 45.900280,205.223190 
	C59.783646,218.398468 77.533295,216.725021 90.743690,208.439636 
	C97.083786,204.463211 102.486801,199.001083 108.376244,194.289352 
	C109.340851,193.517639 110.627342,193.148254 112.113342,192.692169 
	C100.816811,207.491379 86.482147,217.688293 66.951096,216.845062 
	C42.722450,215.799011 26.511620,192.143097 37.665527,169.142670 
z"/>
<path fill="#7E58D8" opacity="1.000000" stroke="none" 
	d="
M113.044281,192.262085 
	C114.309738,189.180511 115.640831,185.802551 117.384987,182.653397 
	C121.747620,174.776413 126.527809,167.122391 130.665237,159.132812 
	C132.454453,155.677750 134.808350,154.062317 138.409744,154.049942 
	C154.847260,153.993439 171.285324,153.973221 187.722183,154.085068 
	C188.945618,154.093384 190.161285,155.243912 191.170227,155.958496 
	C173.709335,156.024612 156.457443,156.105423 139.209183,155.891968 
	C134.723480,155.836456 133.709732,158.848328 131.922272,161.849838 
	C125.868660,172.015182 119.528564,182.009933 113.044281,192.262085 
z"/>
<path fill="#7E58D8" opacity="1.000000" stroke="none" 
	d="
M100.653358,161.099106 
	C101.571457,165.215958 95.876762,174.569214 91.748016,175.311066 
	C90.517670,175.532135 87.900108,173.896561 87.650864,172.738693 
	C86.289474,166.414200 82.212227,162.232224 77.378540,158.621933 
	C68.728394,152.161102 51.453083,154.924194 44.795933,163.482285 
	C43.158588,165.587158 40.735786,167.081039 38.324627,168.925171 
	C40.821526,160.897568 52.134995,153.414200 61.564365,152.978470 
	C74.650635,152.373749 84.052826,156.251846 91.127487,174.797745 
	C94.403374,169.968826 97.367493,165.599472 100.653358,161.099106 
z"/>
<path fill="#7E58D8" opacity="1.000000" stroke="none" 
	d="
M192.260071,178.676117 
	C192.068604,179.012451 191.619446,179.004410 191.394867,179.000748 
	C191.126114,173.306732 191.081940,167.616379 191.411316,161.464233 
	C192.176727,161.002441 192.568558,161.002441 192.960419,161.002441 
	C192.790787,166.781555 192.621155,172.560684 192.260071,178.676117 
z"/>
<path fill="#7E58D8" opacity="1.000000" stroke="none" 
	d="
M176.612915,31.992344 
	C172.140732,36.522278 168.034790,42.154099 160.368301,43.043137 
	C165.432144,39.342102 170.840759,35.684998 176.612915,31.992344 
z"/>
<path fill="#7E58D8" opacity="1.000000" stroke="none" 
	d="
M173.962387,65.993370 
	C176.891724,61.957092 179.268494,57.225498 185.631958,57.020981 
	C182.886383,59.923634 179.755554,62.831074 175.978210,65.870583 
	C174.875244,65.999550 174.418823,65.996460 173.962387,65.993370 
z"/>
<path fill="#7E56D4" opacity="1.000000" stroke="none" 
	d="
M192.958740,160.668793 
	C192.568558,161.002441 192.176727,161.002441 191.490631,161.002380 
	C191.233093,160.073868 191.269821,159.145447 191.639374,158.080017 
	C192.300491,158.740402 192.628784,159.537766 192.958740,160.668793 
z"/>
<path fill="#7E58D8" opacity="1.000000" stroke="none" 
	d="
M170.946655,72.225739 
	C171.003128,71.540977 171.218063,70.785759 171.748444,70.011497 
	C172.025238,70.209915 171.986618,70.427368 171.763184,71.056961 
	C171.484970,71.609657 171.371567,71.731606 171.238144,71.834930 
	C171.238144,71.834930 171.105133,72.155281 170.946655,72.225739 
z"/>
<path fill="#7E56D4" opacity="1.000000" stroke="none" 
	d="
M173.956177,66.327423 
	C174.418823,65.996460 174.875244,65.999550 175.673004,66.007645 
	C175.532822,66.619545 175.051285,67.226463 174.285248,67.914604 
	C173.983810,67.551041 173.966888,67.106255 173.956177,66.327423 
z"/>
<path fill="#884DFA" opacity="1.000000" stroke="none" 
	d="
M171.391327,71.818192 
	C171.371567,71.731606 171.484970,71.609657 171.653351,71.369507 
	C171.828857,71.503639 171.767578,71.680817 171.391327,71.818192 
z"/>
<path fill="#7E56D4" opacity="1.000000" stroke="none" 
	d="
M173.245880,68.964020 
	C173.094833,68.709961 173.283279,68.443207 173.775696,68.119873 
	C173.829498,68.298981 173.664749,68.594986 173.245880,68.964020 
z"/>
<path fill="#000000" opacity="1.000000" stroke="none" 
	d="
M140.028137,261.916534 
	C141.494125,263.588531 142.562927,265.267395 143.631744,266.946289 
	C141.273956,268.368622 138.916183,269.790985 136.558411,271.213348 
	C136.017014,270.819061 135.475616,270.424805 134.934219,270.030548 
	C134.934219,267.513336 134.694489,264.951660 135.146255,262.518311 
	C135.231659,262.058319 138.065369,262.108582 140.028137,261.916534 
z"/>
</svg>